<?xml version="1.0" standalone="no"?>
<!DOCTYPE svg PUBLIC "-//W3C//DTD SVG 1.1//EN" "http://www.w3.org/Graphics/SVG/1.1/DTD/svg11.dtd">
<svg version="1.1" width="1200" height="2134" onload="init(evt)" viewBox="0 0 1200 2134" xmlns="http://www.w3.org/2000/svg" xmlns:xlink="http://www.w3.org/1999/xlink">
<!-- Flame graph stack visualization. See https://github.com/brendangregg/FlameGraph for latest version, and http://www.brendangregg.com/flamegraphs.html for examples. -->
<!-- NOTES:  -->
<defs>
	<linearGradient id="background" y1="0" y2="1" x1="0" x2="0" >
		<stop stop-color="#eeeeee" offset="5%" />
		<stop stop-color="#eeeeb0" offset="95%" />
	</linearGradient>
</defs>
<style type="text/css">
	text { font-family:Verdana; font-size:12px; fill:rgb(0,0,0); }
	#search, #ignorecase { opacity:0.1; cursor:pointer; }
	#search:hover, #search.show, #ignorecase:hover, #ignorecase.show { opacity:1; }
	#subtitle { text-anchor:middle; font-color:rgb(160,160,160); }
	#title { text-anchor:middle; font-size:17px}
	#unzoom { cursor:pointer; }
	#frames > *:hover { stroke:black; stroke-width:0.5; cursor:pointer; }
	.hide { display:none; }
	.parent { opacity:0.5; }
</style>
<script type="text/ecmascript">
<![CDATA[
	"use strict";
	var details, searchbtn, unzoombtn, matchedtxt, svg, searching, currentSearchTerm, ignorecase, ignorecaseBtn;
	function init(evt) {
		details = document.getElementById("details").firstChild;
		searchbtn = document.getElementById("search");
		ignorecaseBtn = document.getElementById("ignorecase");
		unzoombtn = document.getElementById("unzoom");
		matchedtxt = document.getElementById("matched");
		svg = document.getElementsByTagName("svg")[0];
		searching = 0;
		currentSearchTerm = null;

		// use GET parameters to restore a flamegraphs state.
		var params = get_params();
		if (params.x && params.y)
			zoom(find_group(document.querySelector('[x="' + params.x + '"][y="' + params.y + '"]')));
                if (params.s) search(params.s);
	}

	// event listeners
	window.addEventListener("click", function(e) {
		var target = find_group(e.target);
		if (target) {
			if (target.nodeName == "a") {
				if (e.ctrlKey === false) return;
				e.preventDefault();
			}
			if (target.classList.contains("parent")) unzoom(true);
			zoom(target);
			if (!document.querySelector('.parent')) {
				// we have basically done a clearzoom so clear the url
				var params = get_params();
				if (params.x) delete params.x;
				if (params.y) delete params.y;
				history.replaceState(null, null, parse_params(params));
				unzoombtn.classList.add("hide");
				return;
			}

			// set parameters for zoom state
			var el = target.querySelector("rect");
			if (el && el.attributes && el.attributes.y && el.attributes._orig_x) {
				var params = get_params()
				params.x = el.attributes._orig_x.value;
				params.y = el.attributes.y.value;
				history.replaceState(null, null, parse_params(params));
			}
		}
		else if (e.target.id == "unzoom") clearzoom();
		else if (e.target.id == "search") search_prompt();
		else if (e.target.id == "ignorecase") toggle_ignorecase();
	}, false)

	// mouse-over for info
	// show
	window.addEventListener("mouseover", function(e) {
		var target = find_group(e.target);
		if (target) details.nodeValue = "Function: " + g_to_text(target);
	}, false)

	// clear
	window.addEventListener("mouseout", function(e) {
		var target = find_group(e.target);
		if (target) details.nodeValue = ' ';
	}, false)

	// ctrl-F for search
	// ctrl-I to toggle case-sensitive search
	window.addEventListener("keydown",function (e) {
		if (e.keyCode === 114 || (e.ctrlKey && e.keyCode === 70)) {
			e.preventDefault();
			search_prompt();
		}
		else if (e.ctrlKey && e.keyCode === 73) {
			e.preventDefault();
			toggle_ignorecase();
		}
	}, false)

	// functions
	function get_params() {
		var params = {};
		var paramsarr = window.location.search.substr(1).split('&');
		for (var i = 0; i < paramsarr.length; ++i) {
			var tmp = paramsarr[i].split("=");
			if (!tmp[0] || !tmp[1]) continue;
			params[tmp[0]]  = decodeURIComponent(tmp[1]);
		}
		return params;
	}
	function parse_params(params) {
		var uri = "?";
		for (var key in params) {
			uri += key + '=' + encodeURIComponent(params[key]) + '&';
		}
		if (uri.slice(-1) == "&")
			uri = uri.substring(0, uri.length - 1);
		if (uri == '?')
			uri = window.location.href.split('?')[0];
		return uri;
	}
	function find_child(node, selector) {
		var children = node.querySelectorAll(selector);
		if (children.length) return children[0];
	}
	function find_group(node) {
		var parent = node.parentElement;
		if (!parent) return;
		if (parent.id == "frames") return node;
		return find_group(parent);
	}
	function orig_save(e, attr, val) {
		if (e.attributes["_orig_" + attr] != undefined) return;
		if (e.attributes[attr] == undefined) return;
		if (val == undefined) val = e.attributes[attr].value;
		e.setAttribute("_orig_" + attr, val);
	}
	function orig_load(e, attr) {
		if (e.attributes["_orig_"+attr] == undefined) return;
		e.attributes[attr].value = e.attributes["_orig_" + attr].value;
		e.removeAttribute("_orig_"+attr);
	}
	function g_to_text(e) {
		var text = find_child(e, "title").firstChild.nodeValue;
		return (text)
	}
	function g_to_func(e) {
		var func = g_to_text(e);
		// if there's any manipulation we want to do to the function
		// name before it's searched, do it here before returning.
		return (func);
	}
	function update_text(e) {
		var r = find_child(e, "rect");
		var t = find_child(e, "text");
		var w = parseFloat(r.attributes.width.value) -3;
		var txt = find_child(e, "title").textContent.replace(/\([^(]*\)$/,"");
		t.attributes.x.value = parseFloat(r.attributes.x.value) + 3;

		// Smaller than this size won't fit anything
		if (w < 2 * 12 * 0.59) {
			t.textContent = "";
			return;
		}

		t.textContent = txt;
		var sl = t.getSubStringLength(0, txt.length);
		// check if only whitespace or if we can fit the entire string into width w
		if (/^ *$/.test(txt) || sl < w)
			return;

		// this isn't perfect, but gives a good starting point
		// and avoids calling getSubStringLength too often
		var start = Math.floor((w/sl) * txt.length);
		for (var x = start; x > 0; x = x-2) {
			if (t.getSubStringLength(0, x + 2) <= w) {
				t.textContent = txt.substring(0, x) + "..";
				return;
			}
		}
		t.textContent = "";
	}

	// zoom
	function zoom_reset(e) {
		if (e.attributes != undefined) {
			orig_load(e, "x");
			orig_load(e, "width");
		}
		if (e.childNodes == undefined) return;
		for (var i = 0, c = e.childNodes; i < c.length; i++) {
			zoom_reset(c[i]);
		}
	}
	function zoom_child(e, x, ratio) {
		if (e.attributes != undefined) {
			if (e.attributes.x != undefined) {
				orig_save(e, "x");
				e.attributes.x.value = (parseFloat(e.attributes.x.value) - x - 10) * ratio + 10;
				if (e.tagName == "text")
					e.attributes.x.value = find_child(e.parentNode, "rect[x]").attributes.x.value + 3;
			}
			if (e.attributes.width != undefined) {
				orig_save(e, "width");
				e.attributes.width.value = parseFloat(e.attributes.width.value) * ratio;
			}
		}

		if (e.childNodes == undefined) return;
		for (var i = 0, c = e.childNodes; i < c.length; i++) {
			zoom_child(c[i], x - 10, ratio);
		}
	}
	function zoom_parent(e) {
		if (e.attributes) {
			if (e.attributes.x != undefined) {
				orig_save(e, "x");
				e.attributes.x.value = 10;
			}
			if (e.attributes.width != undefined) {
				orig_save(e, "width");
				e.attributes.width.value = parseInt(svg.width.baseVal.value) - (10 * 2);
			}
		}
		if (e.childNodes == undefined) return;
		for (var i = 0, c = e.childNodes; i < c.length; i++) {
			zoom_parent(c[i]);
		}
	}
	function zoom(node) {
		var attr = find_child(node, "rect").attributes;
		var width = parseFloat(attr.width.value);
		var xmin = parseFloat(attr.x.value);
		var xmax = parseFloat(xmin + width);
		var ymin = parseFloat(attr.y.value);
		var ratio = (svg.width.baseVal.value - 2 * 10) / width;

		// XXX: Workaround for JavaScript float issues (fix me)
		var fudge = 0.0001;

		unzoombtn.classList.remove("hide");

		var el = document.getElementById("frames").children;
		for (var i = 0; i < el.length; i++) {
			var e = el[i];
			var a = find_child(e, "rect").attributes;
			var ex = parseFloat(a.x.value);
			var ew = parseFloat(a.width.value);
			var upstack;
			// Is it an ancestor
			if (0 == 0) {
				upstack = parseFloat(a.y.value) > ymin;
			} else {
				upstack = parseFloat(a.y.value) < ymin;
			}
			if (upstack) {
				// Direct ancestor
				if (ex <= xmin && (ex+ew+fudge) >= xmax) {
					e.classList.add("parent");
					zoom_parent(e);
					update_text(e);
				}
				// not in current path
				else
					e.classList.add("hide");
			}
			// Children maybe
			else {
				// no common path
				if (ex < xmin || ex + fudge >= xmax) {
					e.classList.add("hide");
				}
				else {
					zoom_child(e, xmin, ratio);
					update_text(e);
				}
			}
		}
		search();
	}
	function unzoom(dont_update_text) {
		unzoombtn.classList.add("hide");
		var el = document.getElementById("frames").children;
		for(var i = 0; i < el.length; i++) {
			el[i].classList.remove("parent");
			el[i].classList.remove("hide");
			zoom_reset(el[i]);
			if(!dont_update_text) update_text(el[i]);
		}
		search();
	}
	function clearzoom() {
		unzoom();

		// remove zoom state
		var params = get_params();
		if (params.x) delete params.x;
		if (params.y) delete params.y;
		history.replaceState(null, null, parse_params(params));
	}

	// search
	function toggle_ignorecase() {
		ignorecase = !ignorecase;
		if (ignorecase) {
			ignorecaseBtn.classList.add("show");
		} else {
			ignorecaseBtn.classList.remove("show");
		}
		reset_search();
		search();
	}
	function reset_search() {
		var el = document.querySelectorAll("#frames rect");
		for (var i = 0; i < el.length; i++) {
			orig_load(el[i], "fill")
		}
		var params = get_params();
		delete params.s;
		history.replaceState(null, null, parse_params(params));
	}
	function search_prompt() {
		if (!searching) {
			var term = prompt("Enter a search term (regexp " +
			    "allowed, eg: ^ext4_)"
			    + (ignorecase ? ", ignoring case" : "")
			    + "\nPress Ctrl-i to toggle case sensitivity", "");
			if (term != null) search(term);
		} else {
			reset_search();
			searching = 0;
			currentSearchTerm = null;
			searchbtn.classList.remove("show");
			searchbtn.firstChild.nodeValue = "Search"
			matchedtxt.classList.add("hide");
			matchedtxt.firstChild.nodeValue = ""
		}
	}
	function search(term) {
		if (term) currentSearchTerm = term;

		var re = new RegExp(currentSearchTerm, ignorecase ? 'i' : '');
		var el = document.getElementById("frames").children;
		var matches = new Object();
		var maxwidth = 0;
		for (var i = 0; i < el.length; i++) {
			var e = el[i];
			var func = g_to_func(e);
			var rect = find_child(e, "rect");
			if (func == null || rect == null)
				continue;

			// Save max width. Only works as we have a root frame
			var w = parseFloat(rect.attributes.width.value);
			if (w > maxwidth)
				maxwidth = w;

			if (func.match(re)) {
				// highlight
				var x = parseFloat(rect.attributes.x.value);
				orig_save(rect, "fill");
				rect.attributes.fill.value = "rgb(230,0,230)";

				// remember matches
				if (matches[x] == undefined) {
					matches[x] = w;
				} else {
					if (w > matches[x]) {
						// overwrite with parent
						matches[x] = w;
					}
				}
				searching = 1;
			}
		}
		if (!searching)
			return;
		var params = get_params();
		params.s = currentSearchTerm;
		history.replaceState(null, null, parse_params(params));

		searchbtn.classList.add("show");
		searchbtn.firstChild.nodeValue = "Reset Search";

		// calculate percent matched, excluding vertical overlap
		var count = 0;
		var lastx = -1;
		var lastw = 0;
		var keys = Array();
		for (k in matches) {
			if (matches.hasOwnProperty(k))
				keys.push(k);
		}
		// sort the matched frames by their x location
		// ascending, then width descending
		keys.sort(function(a, b){
			return a - b;
		});
		// Step through frames saving only the biggest bottom-up frames
		// thanks to the sort order. This relies on the tree property
		// where children are always smaller than their parents.
		var fudge = 0.0001;	// JavaScript floating point
		for (var k in keys) {
			var x = parseFloat(keys[k]);
			var w = matches[keys[k]];
			if (x >= lastx + lastw - fudge) {
				count += w;
				lastx = x;
				lastw = w;
			}
		}
		// display matched percent
		matchedtxt.classList.remove("hide");
		var pct = 100 * count / maxwidth;
		if (pct != 100) pct = pct.toFixed(1)
		matchedtxt.firstChild.nodeValue = "Matched: " + pct + "%";
	}
]]>
</script>
<rect x="0.0" y="0" width="1200.0" height="2134.0" fill="url(#background)"  />
<text id="title" x="600.00" y="24" >Flame Graph</text>
<text id="details" x="10.00" y="2117" > </text>
<text id="unzoom" x="10.00" y="24" class="hide">Reset Zoom</text>
<text id="search" x="1090.00" y="24" >Search</text>
<text id="ignorecase" x="1174.00" y="24" >ic</text>
<text id="matched" x="1090.00" y="2117" > </text>
<g id="frames">
<g >
<title>[unknown] (109,749,969 samples, 34.81%)</title><rect x="15.6" y="2053" width="410.8" height="15.0" fill="rgb(210,24,5)" rx="2" ry="2" />
<text  x="18.65" y="2063.5" >[unknown]</text>
</g>
<g >
<title>__errno_location (203,993,425 samples, 64.71%)</title><rect x="426.4" y="2053" width="763.6" height="15.0" fill="rgb(233,130,31)" rx="2" ry="2" />
<text  x="429.45" y="2063.5" >__errno_location</text>
</g>
<g >
<title>node::InternalCallbackScope::Close (107,974,420 samples, 34.25%)</title><rect x="22.3" y="1989" width="404.1" height="15.0" fill="rgb(226,100,23)" rx="2" ry="2" />
<text  x="25.29" y="1999.5" >node::InternalCallbackScope::Close</text>
</g>
<g >
<title>[unknown] (1,763,745 samples, 0.56%)</title><rect x="15.7" y="885" width="6.6" height="15.0" fill="rgb(210,24,5)" rx="2" ry="2" />
<text  x="18.69" y="895.5" ></text>
</g>
<g >
<title>[unknown] (1,763,745 samples, 0.56%)</title><rect x="15.7" y="1845" width="6.6" height="15.0" fill="rgb(210,24,5)" rx="2" ry="2" />
<text  x="18.69" y="1855.5" ></text>
</g>
<g >
<title>[unknown] (1,763,745 samples, 0.56%)</title><rect x="15.7" y="197" width="6.6" height="15.0" fill="rgb(210,24,5)" rx="2" ry="2" />
<text  x="18.69" y="207.5" ></text>
</g>
<g >
<title>[unknown] (1,763,745 samples, 0.56%)</title><rect x="15.7" y="629" width="6.6" height="15.0" fill="rgb(210,24,5)" rx="2" ry="2" />
<text  x="18.69" y="639.5" ></text>
</g>
<g >
<title>[unknown] (1,763,745 samples, 0.56%)</title><rect x="15.7" y="597" width="6.6" height="15.0" fill="rgb(210,24,5)" rx="2" ry="2" />
<text  x="18.69" y="607.5" ></text>
</g>
<g >
<title>v8::internal::OptimizingCompileDispatcher::CompileNext (1,501,956 samples, 0.48%)</title><rect x="10.0" y="2005" width="5.6" height="15.0" fill="rgb(240,163,39)" rx="2" ry="2" />
<text  x="13.00" y="2015.5" ></text>
</g>
<g >
<title>[unknown] (1,763,745 samples, 0.56%)</title><rect x="15.7" y="725" width="6.6" height="15.0" fill="rgb(210,24,5)" rx="2" ry="2" />
<text  x="18.69" y="735.5" ></text>
</g>
<g >
<title>[libc.so.6] (1,509,007 samples, 0.48%)</title><rect x="10.0" y="2053" width="5.6" height="15.0" fill="rgb(223,84,20)" rx="2" ry="2" />
<text  x="13.00" y="2063.5" ></text>
</g>
<g >
<title>[unknown] (1,763,745 samples, 0.56%)</title><rect x="15.7" y="1429" width="6.6" height="15.0" fill="rgb(210,24,5)" rx="2" ry="2" />
<text  x="18.69" y="1439.5" ></text>
</g>
<g >
<title>[unknown] (1,763,745 samples, 0.56%)</title><rect x="15.7" y="1397" width="6.6" height="15.0" fill="rgb(210,24,5)" rx="2" ry="2" />
<text  x="18.69" y="1407.5" ></text>
</g>
<g >
<title>v8::internal::OptimizedCompilationJob::ExecuteJob (1,501,956 samples, 0.48%)</title><rect x="10.0" y="1989" width="5.6" height="15.0" fill="rgb(236,147,35)" rx="2" ry="2" />
<text  x="13.00" y="1999.5" ></text>
</g>
<g >
<title>[unknown] (1,763,745 samples, 0.56%)</title><rect x="15.7" y="373" width="6.6" height="15.0" fill="rgb(210,24,5)" rx="2" ry="2" />
<text  x="18.69" y="383.5" ></text>
</g>
<g >
<title>[unknown] (1,763,745 samples, 0.56%)</title><rect x="15.7" y="1717" width="6.6" height="15.0" fill="rgb(210,24,5)" rx="2" ry="2" />
<text  x="18.69" y="1727.5" ></text>
</g>
<g >
<title>v8::internal::compiler::PipelineImpl::Run&lt;v8::internal::compiler::EffectControlLinearizationPhase&gt; (1,491,623 samples, 0.47%)</title><rect x="10.0" y="1941" width="5.6" height="15.0" fill="rgb(237,147,35)" rx="2" ry="2" />
<text  x="13.04" y="1951.5" ></text>
</g>
<g >
<title>[unknown] (1,763,745 samples, 0.56%)</title><rect x="15.7" y="2037" width="6.6" height="15.0" fill="rgb(210,24,5)" rx="2" ry="2" />
<text  x="18.69" y="2047.5" ></text>
</g>
<g >
<title>[unknown] (1,763,745 samples, 0.56%)</title><rect x="15.7" y="1749" width="6.6" height="15.0" fill="rgb(210,24,5)" rx="2" ry="2" />
<text  x="18.69" y="1759.5" ></text>
</g>
<g >
<title>[unknown] (1,763,745 samples, 0.56%)</title><rect x="15.7" y="293" width="6.6" height="15.0" fill="rgb(210,24,5)" rx="2" ry="2" />
<text  x="18.69" y="303.5" ></text>
</g>
<g >
<title>v8::internal::compiler::Scheduler::ComputeSchedule (1,491,623 samples, 0.47%)</title><rect x="10.0" y="1925" width="5.6" height="15.0" fill="rgb(205,3,0)" rx="2" ry="2" />
<text  x="13.04" y="1935.5" ></text>
</g>
<g >
<title>[unknown] (1,763,745 samples, 0.56%)</title><rect x="15.7" y="1813" width="6.6" height="15.0" fill="rgb(210,24,5)" rx="2" ry="2" />
<text  x="18.69" y="1823.5" ></text>
</g>
<g >
<title>[unknown] (1,763,745 samples, 0.56%)</title><rect x="15.7" y="805" width="6.6" height="15.0" fill="rgb(210,24,5)" rx="2" ry="2" />
<text  x="18.69" y="815.5" ></text>
</g>
<g >
<title>node::InternalCallbackScope::~InternalCallbackScope (107,974,420 samples, 34.25%)</title><rect x="22.3" y="2005" width="404.1" height="15.0" fill="rgb(236,145,34)" rx="2" ry="2" />
<text  x="25.29" y="2015.5" >node::InternalCallbackScope::~InternalCallbackScope</text>
</g>
<g >
<title>[unknown] (1,763,745 samples, 0.56%)</title><rect x="15.7" y="853" width="6.6" height="15.0" fill="rgb(210,24,5)" rx="2" ry="2" />
<text  x="18.69" y="863.5" ></text>
</g>
<g >
<title>[unknown] (1,763,745 samples, 0.56%)</title><rect x="15.7" y="773" width="6.6" height="15.0" fill="rgb(210,24,5)" rx="2" ry="2" />
<text  x="18.69" y="783.5" ></text>
</g>
<g >
<title>node::Environment::RunAndClearNativeImmediates (1,763,745 samples, 0.56%)</title><rect x="15.7" y="69" width="6.6" height="15.0" fill="rgb(242,170,40)" rx="2" ry="2" />
<text  x="18.69" y="79.5" ></text>
</g>
<g >
<title>[unknown] (1,763,745 samples, 0.56%)</title><rect x="15.7" y="1941" width="6.6" height="15.0" fill="rgb(210,24,5)" rx="2" ry="2" />
<text  x="18.69" y="1951.5" ></text>
</g>
<g >
<title>[unknown] (1,763,745 samples, 0.56%)</title><rect x="15.7" y="1797" width="6.6" height="15.0" fill="rgb(210,24,5)" rx="2" ry="2" />
<text  x="18.69" y="1807.5" ></text>
</g>
<g >
<title>[unknown] (1,763,745 samples, 0.56%)</title><rect x="15.7" y="837" width="6.6" height="15.0" fill="rgb(210,24,5)" rx="2" ry="2" />
<text  x="18.69" y="847.5" ></text>
</g>
<g >
<title>v8::internal::compiler::PipelineCompilationJob::ExecuteJobImpl (1,491,623 samples, 0.47%)</title><rect x="10.0" y="1973" width="5.6" height="15.0" fill="rgb(212,32,7)" rx="2" ry="2" />
<text  x="13.04" y="1983.5" ></text>
</g>
<g >
<title>[unknown] (1,763,745 samples, 0.56%)</title><rect x="15.7" y="965" width="6.6" height="15.0" fill="rgb(210,24,5)" rx="2" ry="2" />
<text  x="18.69" y="975.5" ></text>
</g>
<g >
<title>node::InternalCallbackScope::~InternalCallbackScope (1,763,745 samples, 0.56%)</title><rect x="15.7" y="53" width="6.6" height="15.0" fill="rgb(236,145,34)" rx="2" ry="2" />
<text  x="18.69" y="63.5" ></text>
</g>
<g >
<title>[unknown] (1,763,745 samples, 0.56%)</title><rect x="15.7" y="1893" width="6.6" height="15.0" fill="rgb(210,24,5)" rx="2" ry="2" />
<text  x="18.69" y="1903.5" ></text>
</g>
<g >
<title>[unknown] (1,763,745 samples, 0.56%)</title><rect x="15.7" y="2021" width="6.6" height="15.0" fill="rgb(210,24,5)" rx="2" ry="2" />
<text  x="18.69" y="2031.5" ></text>
</g>
<g >
<title>[unknown] (1,763,745 samples, 0.56%)</title><rect x="15.7" y="933" width="6.6" height="15.0" fill="rgb(210,24,5)" rx="2" ry="2" />
<text  x="18.69" y="943.5" ></text>
</g>
<g >
<title>[unknown] (1,763,745 samples, 0.56%)</title><rect x="15.7" y="693" width="6.6" height="15.0" fill="rgb(210,24,5)" rx="2" ry="2" />
<text  x="18.69" y="703.5" ></text>
</g>
<g >
<title>[unknown] (1,763,745 samples, 0.56%)</title><rect x="15.7" y="1925" width="6.6" height="15.0" fill="rgb(210,24,5)" rx="2" ry="2" />
<text  x="18.69" y="1935.5" ></text>
</g>
<g >
<title>[unknown] (1,763,745 samples, 0.56%)</title><rect x="15.7" y="1589" width="6.6" height="15.0" fill="rgb(210,24,5)" rx="2" ry="2" />
<text  x="18.69" y="1599.5" ></text>
</g>
<g >
<title>[unknown] (1,763,745 samples, 0.56%)</title><rect x="15.7" y="677" width="6.6" height="15.0" fill="rgb(210,24,5)" rx="2" ry="2" />
<text  x="18.69" y="687.5" ></text>
</g>
<g >
<title>[unknown] (1,763,745 samples, 0.56%)</title><rect x="15.7" y="1557" width="6.6" height="15.0" fill="rgb(210,24,5)" rx="2" ry="2" />
<text  x="18.69" y="1567.5" ></text>
</g>
<g >
<title>[unknown] (1,763,745 samples, 0.56%)</title><rect x="15.7" y="517" width="6.6" height="15.0" fill="rgb(210,24,5)" rx="2" ry="2" />
<text  x="18.69" y="527.5" ></text>
</g>
<g >
<title>[unknown] (1,763,745 samples, 0.56%)</title><rect x="15.7" y="1445" width="6.6" height="15.0" fill="rgb(210,24,5)" rx="2" ry="2" />
<text  x="18.69" y="1455.5" ></text>
</g>
<g >
<title>[unknown] (1,763,745 samples, 0.56%)</title><rect x="15.7" y="1413" width="6.6" height="15.0" fill="rgb(210,24,5)" rx="2" ry="2" />
<text  x="18.69" y="1423.5" ></text>
</g>
<g >
<title>[unknown] (1,763,745 samples, 0.56%)</title><rect x="15.7" y="1973" width="6.6" height="15.0" fill="rgb(210,24,5)" rx="2" ry="2" />
<text  x="18.69" y="1983.5" ></text>
</g>
<g >
<title>[unknown] (1,763,745 samples, 0.56%)</title><rect x="15.7" y="1733" width="6.6" height="15.0" fill="rgb(210,24,5)" rx="2" ry="2" />
<text  x="18.69" y="1743.5" ></text>
</g>
<g >
<title>[unknown] (1,763,745 samples, 0.56%)</title><rect x="15.7" y="453" width="6.6" height="15.0" fill="rgb(210,24,5)" rx="2" ry="2" />
<text  x="18.69" y="463.5" ></text>
</g>
<g >
<title>[unknown] (1,763,745 samples, 0.56%)</title><rect x="15.7" y="1061" width="6.6" height="15.0" fill="rgb(210,24,5)" rx="2" ry="2" />
<text  x="18.69" y="1071.5" ></text>
</g>
<g >
<title>[unknown] (1,763,745 samples, 0.56%)</title><rect x="15.7" y="1765" width="6.6" height="15.0" fill="rgb(210,24,5)" rx="2" ry="2" />
<text  x="18.69" y="1775.5" ></text>
</g>
<g >
<title>[unknown] (1,763,745 samples, 0.56%)</title><rect x="15.7" y="533" width="6.6" height="15.0" fill="rgb(210,24,5)" rx="2" ry="2" />
<text  x="18.69" y="543.5" ></text>
</g>
<g >
<title>[unknown] (1,763,745 samples, 0.56%)</title><rect x="15.7" y="133" width="6.6" height="15.0" fill="rgb(210,24,5)" rx="2" ry="2" />
<text  x="18.69" y="143.5" ></text>
</g>
<g >
<title>[unknown] (1,763,745 samples, 0.56%)</title><rect x="15.7" y="1189" width="6.6" height="15.0" fill="rgb(210,24,5)" rx="2" ry="2" />
<text  x="18.69" y="1199.5" ></text>
</g>
<g >
<title>[unknown] (1,763,745 samples, 0.56%)</title><rect x="15.7" y="213" width="6.6" height="15.0" fill="rgb(210,24,5)" rx="2" ry="2" />
<text  x="18.69" y="223.5" ></text>
</g>
<g >
<title>[unknown] (1,763,745 samples, 0.56%)</title><rect x="15.7" y="1333" width="6.6" height="15.0" fill="rgb(210,24,5)" rx="2" ry="2" />
<text  x="18.69" y="1343.5" ></text>
</g>
<g >
<title>[unknown] (1,763,745 samples, 0.56%)</title><rect x="15.7" y="1957" width="6.6" height="15.0" fill="rgb(210,24,5)" rx="2" ry="2" />
<text  x="18.69" y="1967.5" ></text>
</g>
<g >
<title>[unknown] (1,763,745 samples, 0.56%)</title><rect x="15.7" y="1637" width="6.6" height="15.0" fill="rgb(210,24,5)" rx="2" ry="2" />
<text  x="18.69" y="1647.5" ></text>
</g>
<g >
<title>[unknown] (1,763,745 samples, 0.56%)</title><rect x="15.7" y="1525" width="6.6" height="15.0" fill="rgb(210,24,5)" rx="2" ry="2" />
<text  x="18.69" y="1535.5" ></text>
</g>
<g >
<title>uv_run (1,763,745 samples, 0.56%)</title><rect x="15.7" y="101" width="6.6" height="15.0" fill="rgb(228,110,26)" rx="2" ry="2" />
<text  x="18.69" y="111.5" ></text>
</g>
<g >
<title>[unknown] (1,763,745 samples, 0.56%)</title><rect x="15.7" y="1317" width="6.6" height="15.0" fill="rgb(210,24,5)" rx="2" ry="2" />
<text  x="18.69" y="1327.5" ></text>
</g>
<g >
<title>[unknown] (1,763,745 samples, 0.56%)</title><rect x="15.7" y="1653" width="6.6" height="15.0" fill="rgb(210,24,5)" rx="2" ry="2" />
<text  x="18.69" y="1663.5" ></text>
</g>
<g >
<title>[unknown] (1,763,745 samples, 0.56%)</title><rect x="15.7" y="1141" width="6.6" height="15.0" fill="rgb(210,24,5)" rx="2" ry="2" />
<text  x="18.69" y="1151.5" ></text>
</g>
<g >
<title>[unknown] (1,763,745 samples, 0.56%)</title><rect x="15.7" y="645" width="6.6" height="15.0" fill="rgb(210,24,5)" rx="2" ry="2" />
<text  x="18.69" y="655.5" ></text>
</g>
<g >
<title>[unknown] (1,763,745 samples, 0.56%)</title><rect x="15.7" y="357" width="6.6" height="15.0" fill="rgb(210,24,5)" rx="2" ry="2" />
<text  x="18.69" y="367.5" ></text>
</g>
<g >
<title>[unknown] (1,763,745 samples, 0.56%)</title><rect x="15.7" y="613" width="6.6" height="15.0" fill="rgb(210,24,5)" rx="2" ry="2" />
<text  x="18.69" y="623.5" ></text>
</g>
<g >
<title>[unknown] (1,763,745 samples, 0.56%)</title><rect x="15.7" y="917" width="6.6" height="15.0" fill="rgb(210,24,5)" rx="2" ry="2" />
<text  x="18.69" y="927.5" ></text>
</g>
<g >
<title>[unknown] (1,763,745 samples, 0.56%)</title><rect x="15.7" y="1877" width="6.6" height="15.0" fill="rgb(210,24,5)" rx="2" ry="2" />
<text  x="18.69" y="1887.5" ></text>
</g>
<g >
<title>[unknown] (1,763,745 samples, 0.56%)</title><rect x="15.7" y="1909" width="6.6" height="15.0" fill="rgb(210,24,5)" rx="2" ry="2" />
<text  x="18.69" y="1919.5" ></text>
</g>
<g >
<title>[unknown] (1,763,745 samples, 0.56%)</title><rect x="15.7" y="949" width="6.6" height="15.0" fill="rgb(210,24,5)" rx="2" ry="2" />
<text  x="18.69" y="959.5" ></text>
</g>
<g >
<title>[unknown] (1,763,745 samples, 0.56%)</title><rect x="15.7" y="565" width="6.6" height="15.0" fill="rgb(210,24,5)" rx="2" ry="2" />
<text  x="18.69" y="575.5" ></text>
</g>
<g >
<title>[unknown] (1,763,745 samples, 0.56%)</title><rect x="15.7" y="1029" width="6.6" height="15.0" fill="rgb(210,24,5)" rx="2" ry="2" />
<text  x="18.69" y="1039.5" ></text>
</g>
<g >
<title>[unknown] (1,763,745 samples, 0.56%)</title><rect x="15.7" y="1605" width="6.6" height="15.0" fill="rgb(210,24,5)" rx="2" ry="2" />
<text  x="18.69" y="1615.5" ></text>
</g>
<g >
<title>[unknown] (1,763,745 samples, 0.56%)</title><rect x="15.7" y="1221" width="6.6" height="15.0" fill="rgb(210,24,5)" rx="2" ry="2" />
<text  x="18.69" y="1231.5" ></text>
</g>
<g >
<title>[unknown] (1,763,745 samples, 0.56%)</title><rect x="15.7" y="1573" width="6.6" height="15.0" fill="rgb(210,24,5)" rx="2" ry="2" />
<text  x="18.69" y="1583.5" ></text>
</g>
<g >
<title>node::Environment::CheckImmediate (1,763,745 samples, 0.56%)</title><rect x="15.7" y="85" width="6.6" height="15.0" fill="rgb(238,154,36)" rx="2" ry="2" />
<text  x="18.69" y="95.5" ></text>
</g>
<g >
<title>[unknown] (1,763,745 samples, 0.56%)</title><rect x="15.7" y="1365" width="6.6" height="15.0" fill="rgb(210,24,5)" rx="2" ry="2" />
<text  x="18.69" y="1375.5" ></text>
</g>
<g >
<title>[unknown] (1,763,745 samples, 0.56%)</title><rect x="15.7" y="789" width="6.6" height="15.0" fill="rgb(210,24,5)" rx="2" ry="2" />
<text  x="18.69" y="799.5" ></text>
</g>
<g >
<title>node::Environment::RunTimers (107,974,420 samples, 34.25%)</title><rect x="22.3" y="2021" width="404.1" height="15.0" fill="rgb(208,15,3)" rx="2" ry="2" />
<text  x="25.29" y="2031.5" >node::Environment::RunTimers</text>
</g>
<g >
<title>uv_run (107,974,420 samples, 34.25%)</title><rect x="22.3" y="2037" width="404.1" height="15.0" fill="rgb(228,110,26)" rx="2" ry="2" />
<text  x="25.29" y="2047.5" >uv_run</text>
</g>
<g >
<title>[unknown] (1,763,745 samples, 0.56%)</title><rect x="15.7" y="1477" width="6.6" height="15.0" fill="rgb(210,24,5)" rx="2" ry="2" />
<text  x="18.69" y="1487.5" ></text>
</g>
<g >
<title>[unknown] (1,763,745 samples, 0.56%)</title><rect x="15.7" y="757" width="6.6" height="15.0" fill="rgb(210,24,5)" rx="2" ry="2" />
<text  x="18.69" y="767.5" ></text>
</g>
<g >
<title>all (315,252,409 samples, 100%)</title><rect x="10.0" y="2085" width="1180.0" height="15.0" fill="rgb(213,39,9)" rx="2" ry="2" />
<text  x="13.00" y="2095.5" ></text>
</g>
<g >
<title>[unknown] (1,763,745 samples, 0.56%)</title><rect x="15.7" y="981" width="6.6" height="15.0" fill="rgb(210,24,5)" rx="2" ry="2" />
<text  x="18.69" y="991.5" ></text>
</g>
<g >
<title>[unknown] (1,763,745 samples, 0.56%)</title><rect x="15.7" y="1493" width="6.6" height="15.0" fill="rgb(210,24,5)" rx="2" ry="2" />
<text  x="18.69" y="1503.5" ></text>
</g>
<g >
<title>[unknown] (1,763,745 samples, 0.56%)</title><rect x="15.7" y="1685" width="6.6" height="15.0" fill="rgb(210,24,5)" rx="2" ry="2" />
<text  x="18.69" y="1695.5" ></text>
</g>
<g >
<title>[unknown] (1,763,745 samples, 0.56%)</title><rect x="15.7" y="1045" width="6.6" height="15.0" fill="rgb(210,24,5)" rx="2" ry="2" />
<text  x="18.69" y="1055.5" ></text>
</g>
<g >
<title>[unknown] (1,763,745 samples, 0.56%)</title><rect x="15.7" y="325" width="6.6" height="15.0" fill="rgb(210,24,5)" rx="2" ry="2" />
<text  x="18.69" y="335.5" ></text>
</g>
<g >
<title>[unknown] (1,763,745 samples, 0.56%)</title><rect x="15.7" y="549" width="6.6" height="15.0" fill="rgb(210,24,5)" rx="2" ry="2" />
<text  x="18.69" y="559.5" ></text>
</g>
<g >
<title>[unknown] (1,763,745 samples, 0.56%)</title><rect x="15.7" y="1621" width="6.6" height="15.0" fill="rgb(210,24,5)" rx="2" ry="2" />
<text  x="18.69" y="1631.5" ></text>
</g>
<g >
<title>[unknown] (1,763,745 samples, 0.56%)</title><rect x="15.7" y="1173" width="6.6" height="15.0" fill="rgb(210,24,5)" rx="2" ry="2" />
<text  x="18.69" y="1183.5" ></text>
</g>
<g >
<title>[unknown] (1,763,745 samples, 0.56%)</title><rect x="15.7" y="261" width="6.6" height="15.0" fill="rgb(210,24,5)" rx="2" ry="2" />
<text  x="18.69" y="271.5" ></text>
</g>
<g >
<title>[unknown] (1,763,745 samples, 0.56%)</title><rect x="15.7" y="1301" width="6.6" height="15.0" fill="rgb(210,24,5)" rx="2" ry="2" />
<text  x="18.69" y="1311.5" ></text>
</g>
<g >
<title>v8::internal::compiler::Schedule::IsScheduled (1,491,623 samples, 0.47%)</title><rect x="10.0" y="1909" width="5.6" height="15.0" fill="rgb(216,54,13)" rx="2" ry="2" />
<text  x="13.04" y="1919.5" ></text>
</g>
<g >
<title>[unknown] (1,763,745 samples, 0.56%)</title><rect x="15.7" y="277" width="6.6" height="15.0" fill="rgb(210,24,5)" rx="2" ry="2" />
<text  x="18.69" y="287.5" ></text>
</g>
<g >
<title>[unknown] (1,763,745 samples, 0.56%)</title><rect x="15.7" y="229" width="6.6" height="15.0" fill="rgb(210,24,5)" rx="2" ry="2" />
<text  x="18.69" y="239.5" ></text>
</g>
<g >
<title>[unknown] (1,763,745 samples, 0.56%)</title><rect x="15.7" y="1157" width="6.6" height="15.0" fill="rgb(210,24,5)" rx="2" ry="2" />
<text  x="18.69" y="1167.5" ></text>
</g>
<g >
<title>[unknown] (1,763,745 samples, 0.56%)</title><rect x="15.7" y="501" width="6.6" height="15.0" fill="rgb(210,24,5)" rx="2" ry="2" />
<text  x="18.69" y="511.5" ></text>
</g>
<g >
<title>[unknown] (1,763,745 samples, 0.56%)</title><rect x="15.7" y="1285" width="6.6" height="15.0" fill="rgb(210,24,5)" rx="2" ry="2" />
<text  x="18.69" y="1295.5" ></text>
</g>
<g >
<title>[unknown] (1,763,745 samples, 0.56%)</title><rect x="15.7" y="1541" width="6.6" height="15.0" fill="rgb(210,24,5)" rx="2" ry="2" />
<text  x="18.69" y="1551.5" ></text>
</g>
<g >
<title>[unknown] (1,763,745 samples, 0.56%)</title><rect x="15.7" y="1253" width="6.6" height="15.0" fill="rgb(210,24,5)" rx="2" ry="2" />
<text  x="18.69" y="1263.5" ></text>
</g>
<g >
<title>[unknown] (1,763,745 samples, 0.56%)</title><rect x="15.7" y="1669" width="6.6" height="15.0" fill="rgb(210,24,5)" rx="2" ry="2" />
<text  x="18.69" y="1679.5" ></text>
</g>
<g >
<title>[unknown] (1,763,745 samples, 0.56%)</title><rect x="15.7" y="181" width="6.6" height="15.0" fill="rgb(210,24,5)" rx="2" ry="2" />
<text  x="18.69" y="191.5" ></text>
</g>
<g >
<title>[unknown] (1,763,745 samples, 0.56%)</title><rect x="15.7" y="1349" width="6.6" height="15.0" fill="rgb(210,24,5)" rx="2" ry="2" />
<text  x="18.69" y="1359.5" ></text>
</g>
<g >
<title>[unknown] (1,763,745 samples, 0.56%)</title><rect x="15.7" y="1461" width="6.6" height="15.0" fill="rgb(210,24,5)" rx="2" ry="2" />
<text  x="18.69" y="1471.5" ></text>
</g>
<g >
<title>[unknown] (1,763,745 samples, 0.56%)</title><rect x="15.7" y="581" width="6.6" height="15.0" fill="rgb(210,24,5)" rx="2" ry="2" />
<text  x="18.69" y="591.5" ></text>
</g>
<g >
<title>[unknown] (1,763,745 samples, 0.56%)</title><rect x="15.7" y="1013" width="6.6" height="15.0" fill="rgb(210,24,5)" rx="2" ry="2" />
<text  x="18.69" y="1023.5" ></text>
</g>
<g >
<title>[unknown] (1,763,745 samples, 0.56%)</title><rect x="15.7" y="1205" width="6.6" height="15.0" fill="rgb(210,24,5)" rx="2" ry="2" />
<text  x="18.69" y="1215.5" ></text>
</g>
<g >
<title>[unknown] (1,763,745 samples, 0.56%)</title><rect x="15.7" y="997" width="6.6" height="15.0" fill="rgb(210,24,5)" rx="2" ry="2" />
<text  x="18.69" y="1007.5" ></text>
</g>
<g >
<title>v8::internal::Runtime::SetObjectProperty (107,974,420 samples, 34.25%)</title><rect x="22.3" y="1973" width="404.1" height="15.0" fill="rgb(228,106,25)" rx="2" ry="2" />
<text  x="25.29" y="1983.5" >v8::internal::Runtime::SetObjectProperty</text>
</g>
<g >
<title>[unknown] (1,763,745 samples, 0.56%)</title><rect x="15.7" y="1509" width="6.6" height="15.0" fill="rgb(210,24,5)" rx="2" ry="2" />
<text  x="18.69" y="1519.5" ></text>
</g>
<g >
<title>[unknown] (1,763,745 samples, 0.56%)</title><rect x="15.7" y="245" width="6.6" height="15.0" fill="rgb(210,24,5)" rx="2" ry="2" />
<text  x="18.69" y="255.5" ></text>
</g>
<g >
<title>[unknown] (1,763,745 samples, 0.56%)</title><rect x="15.7" y="1701" width="6.6" height="15.0" fill="rgb(210,24,5)" rx="2" ry="2" />
<text  x="18.69" y="1711.5" ></text>
</g>
<g >
<title>[unknown] (1,763,745 samples, 0.56%)</title><rect x="15.7" y="1125" width="6.6" height="15.0" fill="rgb(210,24,5)" rx="2" ry="2" />
<text  x="18.69" y="1135.5" ></text>
</g>
<g >
<title>[unknown] (1,763,745 samples, 0.56%)</title><rect x="15.7" y="1093" width="6.6" height="15.0" fill="rgb(210,24,5)" rx="2" ry="2" />
<text  x="18.69" y="1103.5" ></text>
</g>
<g >
<title>[unknown] (1,763,745 samples, 0.56%)</title><rect x="15.7" y="1381" width="6.6" height="15.0" fill="rgb(210,24,5)" rx="2" ry="2" />
<text  x="18.69" y="1391.5" ></text>
</g>
<g >
<title>[unknown] (1,763,745 samples, 0.56%)</title><rect x="15.7" y="149" width="6.6" height="15.0" fill="rgb(210,24,5)" rx="2" ry="2" />
<text  x="18.69" y="159.5" ></text>
</g>
<g >
<title>[unknown] (1,763,745 samples, 0.56%)</title><rect x="15.7" y="469" width="6.6" height="15.0" fill="rgb(210,24,5)" rx="2" ry="2" />
<text  x="18.69" y="479.5" ></text>
</g>
<g >
<title>[unknown] (1,763,745 samples, 0.56%)</title><rect x="15.7" y="1237" width="6.6" height="15.0" fill="rgb(210,24,5)" rx="2" ry="2" />
<text  x="18.69" y="1247.5" ></text>
</g>
<g >
<title>[unknown] (1,763,745 samples, 0.56%)</title><rect x="15.7" y="341" width="6.6" height="15.0" fill="rgb(210,24,5)" rx="2" ry="2" />
<text  x="18.69" y="351.5" ></text>
</g>
<g >
<title>[unknown] (1,763,745 samples, 0.56%)</title><rect x="15.7" y="1989" width="6.6" height="15.0" fill="rgb(210,24,5)" rx="2" ry="2" />
<text  x="18.69" y="1999.5" ></text>
</g>
<g >
<title>non-virtual thunk to v8::internal::CancelableTask::Run (1,501,956 samples, 0.48%)</title><rect x="10.0" y="2021" width="5.6" height="15.0" fill="rgb(209,22,5)" rx="2" ry="2" />
<text  x="13.00" y="2031.5" ></text>
</g>
<g >
<title>[unknown] (1,763,745 samples, 0.56%)</title><rect x="15.7" y="1269" width="6.6" height="15.0" fill="rgb(210,24,5)" rx="2" ry="2" />
<text  x="18.69" y="1279.5" ></text>
</g>
<g >
<title>[unknown] (1,763,745 samples, 0.56%)</title><rect x="15.7" y="1861" width="6.6" height="15.0" fill="rgb(210,24,5)" rx="2" ry="2" />
<text  x="18.69" y="1871.5" ></text>
</g>
<g >
<title>[unknown] (1,763,745 samples, 0.56%)</title><rect x="15.7" y="901" width="6.6" height="15.0" fill="rgb(210,24,5)" rx="2" ry="2" />
<text  x="18.69" y="911.5" ></text>
</g>
<g >
<title>[unknown] (1,763,745 samples, 0.56%)</title><rect x="15.7" y="165" width="6.6" height="15.0" fill="rgb(210,24,5)" rx="2" ry="2" />
<text  x="18.69" y="175.5" ></text>
</g>
<g >
<title>[unknown] (1,763,745 samples, 0.56%)</title><rect x="15.7" y="485" width="6.6" height="15.0" fill="rgb(210,24,5)" rx="2" ry="2" />
<text  x="18.69" y="495.5" ></text>
</g>
<g >
<title>[unknown] (1,763,745 samples, 0.56%)</title><rect x="15.7" y="389" width="6.6" height="15.0" fill="rgb(210,24,5)" rx="2" ry="2" />
<text  x="18.69" y="399.5" ></text>
</g>
<g >
<title>[unknown] (1,763,745 samples, 0.56%)</title><rect x="15.7" y="741" width="6.6" height="15.0" fill="rgb(210,24,5)" rx="2" ry="2" />
<text  x="18.69" y="751.5" ></text>
</g>
<g >
<title>npm_start (313,743,397 samples, 99.52%)</title><rect x="15.6" y="2069" width="1174.4" height="15.0" fill="rgb(207,9,2)" rx="2" ry="2" />
<text  x="18.65" y="2079.5" >npm_start</text>
</g>
<g >
<title>[unknown] (1,763,745 samples, 0.56%)</title><rect x="15.7" y="437" width="6.6" height="15.0" fill="rgb(210,24,5)" rx="2" ry="2" />
<text  x="18.69" y="447.5" ></text>
</g>
<g >
<title>[unknown] (1,763,745 samples, 0.56%)</title><rect x="15.7" y="117" width="6.6" height="15.0" fill="rgb(210,24,5)" rx="2" ry="2" />
<text  x="18.69" y="127.5" ></text>
</g>
<g >
<title>[unknown] (1,763,745 samples, 0.56%)</title><rect x="15.7" y="421" width="6.6" height="15.0" fill="rgb(210,24,5)" rx="2" ry="2" />
<text  x="18.69" y="431.5" ></text>
</g>
<g >
<title>v8::internal::GlobalHandles::Destroy (1,763,745 samples, 0.56%)</title><rect x="15.7" y="37" width="6.6" height="15.0" fill="rgb(238,153,36)" rx="2" ry="2" />
<text  x="18.69" y="47.5" ></text>
</g>
<g >
<title>[unknown] (1,763,745 samples, 0.56%)</title><rect x="15.7" y="1109" width="6.6" height="15.0" fill="rgb(210,24,5)" rx="2" ry="2" />
<text  x="18.69" y="1119.5" ></text>
</g>
<g >
<title>[unknown] (1,763,745 samples, 0.56%)</title><rect x="15.7" y="405" width="6.6" height="15.0" fill="rgb(210,24,5)" rx="2" ry="2" />
<text  x="18.69" y="415.5" ></text>
</g>
<g >
<title>[unknown] (1,763,745 samples, 0.56%)</title><rect x="15.7" y="1077" width="6.6" height="15.0" fill="rgb(210,24,5)" rx="2" ry="2" />
<text  x="18.69" y="1087.5" ></text>
</g>
<g >
<title>[unknown] (1,763,745 samples, 0.56%)</title><rect x="15.7" y="2005" width="6.6" height="15.0" fill="rgb(210,24,5)" rx="2" ry="2" />
<text  x="18.69" y="2015.5" ></text>
</g>
<g >
<title>[unknown] (1,763,745 samples, 0.56%)</title><rect x="15.7" y="309" width="6.6" height="15.0" fill="rgb(210,24,5)" rx="2" ry="2" />
<text  x="18.69" y="319.5" ></text>
</g>
<g >
<title>[unknown] (1,763,745 samples, 0.56%)</title><rect x="15.7" y="661" width="6.6" height="15.0" fill="rgb(210,24,5)" rx="2" ry="2" />
<text  x="18.69" y="671.5" ></text>
</g>
<g >
<title>[unknown] (1,763,745 samples, 0.56%)</title><rect x="15.7" y="1829" width="6.6" height="15.0" fill="rgb(210,24,5)" rx="2" ry="2" />
<text  x="18.69" y="1839.5" ></text>
</g>
<g >
<title>[unknown] (1,763,745 samples, 0.56%)</title><rect x="15.7" y="869" width="6.6" height="15.0" fill="rgb(210,24,5)" rx="2" ry="2" />
<text  x="18.69" y="879.5" ></text>
</g>
<g >
<title>node (1,509,012 samples, 0.48%)</title><rect x="10.0" y="2069" width="5.6" height="15.0" fill="rgb(237,149,35)" rx="2" ry="2" />
<text  x="13.00" y="2079.5" ></text>
</g>
<g >
<title>[unknown] (1,763,745 samples, 0.56%)</title><rect x="15.7" y="709" width="6.6" height="15.0" fill="rgb(210,24,5)" rx="2" ry="2" />
<text  x="18.69" y="719.5" ></text>
</g>
<g >
<title>[libnode.so.72] (1,502,020 samples, 0.48%)</title><rect x="10.0" y="2037" width="5.6" height="15.0" fill="rgb(207,10,2)" rx="2" ry="2" />
<text  x="13.00" y="2047.5" ></text>
</g>
<g >
<title>v8::internal::compiler::PipelineImpl::OptimizeGraph (1,491,623 samples, 0.47%)</title><rect x="10.0" y="1957" width="5.6" height="15.0" fill="rgb(222,81,19)" rx="2" ry="2" />
<text  x="13.04" y="1967.5" ></text>
</g>
<g >
<title>[unknown] (1,763,745 samples, 0.56%)</title><rect x="15.7" y="821" width="6.6" height="15.0" fill="rgb(210,24,5)" rx="2" ry="2" />
<text  x="18.69" y="831.5" ></text>
</g>
<g >
<title>[unknown] (1,763,745 samples, 0.56%)</title><rect x="15.7" y="1781" width="6.6" height="15.0" fill="rgb(210,24,5)" rx="2" ry="2" />
<text  x="18.69" y="1791.5" ></text>
</g>
</g>
</svg>
